<svg xmlns="http://www.w3.org/2000/svg" width="699.299" height="745.92" viewBox="0 0 699.299 745.92">
  <g id="logout" transform="translate(-0.5 0)">
    <path id="Path_130" data-name="Path 130" d="M481.268,21.861v614.8a21.64,21.64,0,0,1-21.853,21.853H284.59a21.64,21.64,0,0,1-21.853-21.853L.5,21.861A21.637,21.637,0,0,1,22.353.008H459.415a21.637,21.637,0,0,1,21.853,21.853Zm0,0" transform="translate(0 0.004)" fill="#07485e"/>
    <path id="Path_131" data-name="Path 131" d="M419.59,21.861v614.8a21.64,21.64,0,0,1-21.853,21.853H222.912a21.64,21.64,0,0,1-21.853-21.853L135.5,483.69V.008H397.738A21.637,21.637,0,0,1,419.59,21.861Zm0,0" transform="translate(61.678 0.004)" fill="#03232e"/>
    <path id="Path_132" data-name="Path 132" d="M294.2,133.315,31.965,2.2c-6.55-3.062-14.859-3.062-20.977.876A22.73,22.73,0,0,0,.5,21.865v614.8A21.249,21.249,0,0,0,15.359,657.2L197.179,717.96,277.6,744.616A21.536,21.536,0,0,0,297.265,742a22.772,22.772,0,0,0,9.179-17.921V152.983A22.369,22.369,0,0,0,294.2,133.315Zm0,0" transform="translate(0 0)" fill="#eeb644"/>
    <path id="Path_133" data-name="Path 133" d="M244.765,126.39V697.485a22.79,22.79,0,0,1-9.179,17.921,21.507,21.507,0,0,1-19.668,2.618L135.5,691.367V58.207l97.024,48.515a22.369,22.369,0,0,1,12.241,19.668Zm0,0" transform="translate(61.678 26.593)" fill="#f29d3f"/>
    <path id="Path_134" data-name="Path 134" d="M426.872,397.949a21.836,21.836,0,0,1-11.547-19.27V356.826H262.353A21.841,21.841,0,0,1,240.5,334.973V247.561a21.837,21.837,0,0,1,21.853-21.853H415.325V203.855A21.849,21.849,0,0,1,449.3,185.672l131.118,87.413a21.847,21.847,0,0,1,0,36.359L449.3,396.856A21.834,21.834,0,0,1,426.872,397.949Zm0,0" transform="translate(109.65 83.16)" fill="#f29d3f"/>
    <path id="Path_135" data-name="Path 135" d="M164.206,233.861v87.413a21.853,21.853,0,0,1-43.706,0V233.861a21.853,21.853,0,0,1,43.706,0Zm0,0" transform="translate(54.825 96.861)" fill="#fff5f5"/>
    <path id="Path_136" data-name="Path 136" d="M157.353,233.861v87.413A21.64,21.64,0,0,1,135.5,343.126V212.008A21.637,21.637,0,0,1,157.353,233.861Zm0,0" transform="translate(61.678 96.861)" fill="#efe2dd"/>
  </g>
</svg>
