<svg id="Layer_1" data-name="Layer 1" xmlns="http://www.w3.org/2000/svg" viewBox="0 0 1400 1400"><title>m2_logo</title><rect x="188" y="188" width="1024" height="1024" rx="183.1" fill="#e62129"/><polygon points="812.45 424.25 700 566.72 587.55 424.25 363.13 424.25 363.13 975.75 494.11 975.75 495.64 553.7 520.91 553.7 623.55 673.96 700 673.96 776.45 673.96 879.09 553.7 904.36 553.7 905.89 975.75 1036.87 975.75 1036.87 424.25 812.45 424.25" fill="#fff"/><path d="M648.64,797.89H581.57V764.53s.69-66.71,93.62-64.33c28.26.33,88.85-3.71,119.49,13.29,17.45,13.72,23.49,18.36,30,57.51-.34,33,0,36.08,0,36.08s-6.13,51.07-47,62.64c-15,4.77-93.28,13.62-118.81,17.7-7.83,2-11.91,5.45-11.91,5.45s-1-.17-1.11,3.74.17,14.56.17,14.56H822.51v63.91H575.36V889.8s3.83-53.87,50.81-62c51.83-6.64,85.53-10.47,85.53-10.47l33.45-4.59A14.7,14.7,0,0,0,755,800.27c.26-8.08.17-18.64.17-18.64s-.68-17.78-32.68-18.12c-25.87-.34-48.34,0-48.34,0s-20.3-1.11-24.51,19.44l.25,15.2Z" fill="#fff"/></svg>